<?xml version="1.0" encoding="UTF-8"?>
<svg id="Capa_1" xmlns="http://www.w3.org/2000/svg" version="1.1" viewBox="0 0 756.24 244.32">
  <!-- Generator: Adobe Illustrator 29.0.1, SVG Export Plug-In . SVG Version: 2.1.0 Build 192)  -->
  <defs>
    <style>
      .st0 {
        fill: #34812a;
      }

      .st1 {
        fill: #dc1f1d;
      }
    </style>
  </defs>
  <path class="st0" d="M285.47,218.99c-16.33,0-26.89-4.77-36.46-16.48-9.29-11.32-10.68-28.11-10.68-37.13,0-16.78,4.82-30.06,14.72-40.59,7.79-8.39,20.3-13,35.22-13,12.53,0,19.9,3.29,21.35,4l4.89,20.35c-7-3.82-14.06-4.64-18.92-4.64-10.51,0-17.02,2.4-22.45,8.24-5.62,6.05-8.34,14.45-8.34,25.65,0,12.51,2.81,21.57,8.37,26.94,4.91,4.36,10.82,4.83,13.14,4.83,4.39,0,5.91-.69,6.06-.78l.39-.18v-21.8h-9.71v-15.91h33.51v55.37c-1.5.54-6.7,2.33-13.78,3.61-5.18.79-10.88,1.53-17.32,1.53"/>
  <path class="st0" d="M382.93,217.85c-2.64,0-4.98-.3-7.03-2.2-2.05-1.76-2.35-4.54-2.35-7.03v-2.64c-4.39,8.8-13.18,13.04-21.67,13.04s-14.95-3.07-19.64-10.1c-3.81-6.31-4.25-13.05-4.25-21.99v-50.69h24.76v50.69c0,5.27,0,8.64,2.5,12.01,1.46,1.9,3.66,2.64,6.29,2.64,4.69,0,10.12-3.81,10.12-11.42v-53.92h24.76v81.61h-13.48Z"/>
  <polygon class="st0" points="465.99 217.85 400.35 217.85 433.91 152.37 401.97 152.37 405.49 136.25 468.78 136.25 435.37 200.71 470.24 200.71 465.99 217.85"/>
  <path class="st0" d="M558.88,217.85v-50.69c0-2.78-.15-4.84-.59-7.62-.44-2.05-.73-3.37-2.04-4.83-1.62-2.2-3.68-2.5-6.01-2.5-2.65,0-4.41,1.32-5.72,2.79-3.08,3.37-2.79,8.79-2.79,13.77v49.08h-24.6v-50.69c0-4.53.15-9.37-2.65-12.6-1.46-1.61-2.93-2.34-6-2.34-2.34,0-4.1.73-6.01,3.08-2.93,3.36-2.79,8.8-2.79,13.48v49.08h-24.76v-81.61h24.48v12.31c1.46-4.25,7.91-14.06,20.35-14.06,5.56,0,10.55,1.17,14.37,3.96,3.8,2.78,5.56,7.32,6.43,10.4.88-3.08,7.34-14.36,20.82-14.36,5.13,0,9.96.88,14.35,3.96,7.03,4.98,7.91,15.68,7.91,21.1v58.31h-24.76Z"/>
  <path class="st0" d="M634.61,181.23c0-.3-2.77-.59-6.44-.59-5.57,0-10.69,1.16-12.89,5.42-.88,1.62-1.47,3.37-1.47,5.86,0,6.44,4.25,9.66,9.37,9.66,1.9,0,4.41-.59,6.17-1.76,2.77-1.76,5.26-4.99,5.26-9.08v-9.51ZM613.07,131.12v-10.11l26.52-12.73,4.1,13.04-30.62,9.8ZM645.74,217.85c-1.61,0-5.28-.14-7.33-2.2-1.76-1.9-2.05-5.28-2.05-7.03v-2.64c-4.25,8.8-14.64,13.34-24.02,13.04-16.26-.58-22.27-13.32-22.27-24.47,0-6.29,2.05-12.46,6-16.99,7.92-8.8,20.36-11.57,32.97-11.57,3.36,0,5.56.29,5.56.29v-2.78c0-2.35,0-6.15-1.9-8.21-2.2-2.78-5.71-4.98-14.95-4.98-13.47.3-21.69,9.23-21.69,9.23l3.97-20.07s9.07-5.27,23.43-5.27,22.7,3.37,28.42,9.08c5.57,5.86,7.33,12.32,7.33,23v51.57h-13.48Z"/>
  <path class="st0" d="M712.55,217.85v-50.69c0-6.74.44-15.23-9.08-15.23-2.93,0-4.98,1.02-6.45,3.08-3.08,4.11-2.93,8.79-2.93,13.77v49.08h-24.76v-81.61h24.76v12.31c1.17-4.25,7.62-14.06,20.36-14.06,6.74,0,12.17,1.46,16.26,5.57,6.3,6,6.74,15.23,6.74,19.48v58.31h-24.91Z"/>
  <path class="st0" d="M18.78,151.84c13.54,38.01,49.73,65.26,92.39,65.26,3.09,0,6.13-.18,9.14-.45-13.93-38.04-50.46-65.18-93.31-65.18-2.77,0-5.51.15-8.22.37"/>
  <path class="st0" d="M196.99,166.57c-5.67-2.07-11.76-3.25-18.15-3.25-29.11,0-52.73,23.51-52.95,52.57,30.63-4.61,56.61-23.28,71.09-49.32"/>
  <path class="st1" d="M49.41,93.26c0,32.99,23.11,62.58,56.69,69.43,4.84,1,9.62,1.46,14.36,1.46,29.11,0,55.51-18.11,66.01-45.37,5.67-14.8,4.32-24.46,2.5-30.55-2.73-9.24-8.85-16.88-14.58-20.99v-.04s0-.02-.04-.02c-3.88-2.97-8.76-4.79-9.05-5.03-4.85-2.04-9.85-2.97-14.76-2.97-1.54,0-3.04.09-4.53.29-19.04,2.22-35.67,18.36-35.67,39.94,0,1.2.05,2.44.14,3.7,7.41,1.01,16.73-.89,24.17-6.62-3.43-2.38-5.67-6.38-5.67-10.9,0-7.38,5.99-13.38,13.39-13.38,1.86,0,3.61.37,5.22,1.05v-.02c3.86,1.62,6.98,4.91,7.89,9.65.05.38.11.73.17,1.12.07.53.09,1.05.09,1.59,0,.47-.02.97-.05,1.44-.1,1.29-.37,2.66-.76,4.14-5.33,17.4-21.03,28.91-38.47,29.63-.8.07-1.55.09-2.36.09-22.49,0-41.64-19.05-41.64-42.02,0-3.43.45-6.93,1.33-10.5,5.35-21.11,24.76-31.93,40.63-31.93,1.76,0,3.47.14,5.12.44.09,0,.18,0,.27.02.05-.02.09-.02.09-.02.05,0,.09.02.13.06,8.55.91,17.61,5.17,24.58,12.19,4.79-1.35,9.73-2.01,14.65-2.01,5.87,0,11.73.97,17.37,2.88-10.06-13.03-24.67-22.74-42.11-26.26-4.79-1.01-9.55-1.47-14.26-1.47-36,0-70.84,28.7-70.84,70.98"/>
</svg>