<?xml version="1.0" encoding="UTF-8"?>
<svg id="Layer_1" xmlns="http://www.w3.org/2000/svg" version="1.1" viewBox="0 0 75.5 91.2">
  <!-- Generator: Adobe Illustrator 29.0.1, SVG Export Plug-In . SVG Version: 2.1.0 Build 192)  -->
  <defs>
    <style>
      .st0 {
        fill: #fff;
      }

      .st1 {
        fill: #d9000d;
      }
    </style>
  </defs>
  
  
  <g id="Grupo_1902">
    <g id="Grupo_1897">
      <g id="Grupo_1896">
        <path id="Trazado_10906" class="st1" d="M52.2,43.3c-2-1.3-2,0-1.5-2,.2-1,0-.4.5-.6,1.4-.7-3.9-9-3.6-5.1-2.6,1.1-3.9,2.9-3.1,6.1.4,1.5-1.4,0-1.5,2,0,1.1,1.5-1.7,9.1.3,0-.8,0-.7,0-.8ZM49.4,42.4h-3.6c-.3-1.1-.3-2.3,0-3.3.4.2.8.3,1.2.2,1,0,1.8-1,1.9-2.5.7.7,1.1,1.6,1.2,2.6l-.8,2.9Z"/>
      </g>
      <path id="Trazado_10907" class="st1" d="M28.4,40.1c-5.5,6.7-18.5,7.9-24.8.5-3.3,10.4-1.7,21.8,4.4,30.9,10.6,16.3,27,16.3,27.1,16.3,1.2,0-.3.5,2.3-7.1,1.8-5.3,3.5-6.3,1.8-6.3s-2.2,1.6-3.1,3.4c-2.2,4.2-1.6,5.1-3.4,4,1.9-2.4,1.5-11.2,1.3-10.8,11.4,0,11-5.6,11.8-5.1,7.1,4.2,9.1-1.9,9.8.4.6,2.2-1,1.8,2.8,6.4,4.9,5.9,5.2,2.8-3.6,6.2-5.7,2.2-1.4,2.4-4.8-1.9-1.3-1.6-1.3,2.3.9,6.8,2,4.2,8.9,11.5,4.5,4-.9-1.5-1.7-3-2.4-4.6.3,0,1.3-1,3.2-2.1,4.7-2.8,2.8-1.9,5,3.2,1.7,3.8,3,3.4,3,2.3s-.6-1.8-1.1-3.4c-1.5-4.3-1.3-2.6,3.2-6.8,1.3-1.1,2.6-2.4,3.7-3.7,9.5-.2,4.2-5.7,4.2-10.5s1.1-6.4,1.1-11c.1-8.5-2.3-8.2-1-13.6,2.6-10.3-8.2-20.6-15.7-17-7.5-4.5-16.2-6.3-24.9-5.2,0,11.6-7.8,19.2-16.1,19.2s-2.2-2.2-.6,5.3c2.2-7.4,8.2-6.8,14.8-6.8-.2,0,.4,2.3-3.3,6.8ZM44.8,30.4c0-9,3.9-6.3,6.5-4.5,3.1,2,5.3,5.2,6.1,8.8,1.4,5.7.8,3.3,3.7,8.9-2.9.8-5.9-6-6.3-9.3-.2-3.4-3-6.1-6.4-6.2-2.3,0-3.6,4.3-3.6,2.5ZM38.9,28.4c-1.2,1.1-1.3.9-.5,4.4-5.7-2.4-3.8-8.6.8-8.6s4.8,5.6,4.6,5.6c-.5,0-2.3-2.5-3.3-2.5s-1.1.6-1.6,1.1h0ZM16.2,47.1c6.5,0,7.7-2.3,7,3.5-.2.9-11.7.6-11.7-.4-1-4.3,0-3.1,4.7-3.1ZM19.6,52.4c3.7,0,3.1-2.2,2.8,5.2-.5,1-5.4,2.6-11.1-.3,1.3-8.7-2.6-4.9,8.3-4.9h0ZM15.9,51.9c0,0,0,0,0,0h0ZM31.3,81.7c-7.2,0-15.3-6.9-15.8-11.9-.2-.7-1-6-1-6-2-1.7-9-7-9-9.8,0-.6.3-1.1.9-1.3,1.1,0,2.2,5.6,3.9,3.4-3.8-7.2-1.3-6.8-.6-6.5,1.2.4.6,3.7.6,8.4,2.1,1.2,4.4,1.9,6.7,2.1,9,0,5.2-5.8,8.8-5.8s.9,2.5,0,4c-1.3,1.6-3.5,4-3.4,4.5-.9,5.1,5.5,9.3,8.9,9.3,2.1,0,1.4,9.6,0,9.6h0ZM53,61.9c-1.1,3.1.7,4.1-3.8,4.1-.9,0-1.7-.3-2.6-.6-.3-2.7-.4-3.5.3-3.5,1.3,0,2.5-.5,3.2-1.5,0-.1-8.6.7-8.6-.3s3.7-2.4,7.5-8.9c3.2,3.1,3.5,1.3,3.1,1.3-2.7-1.8-4.4-5.5-6.3-4.3-.3.3-.6.9-.2.9,5.7.2-3.2,9.6-7.3,9.6s-5.1-6.3-7-8.5c3.4-.2,3.7-4.7,2.9-4.7s-.5,3.4-2.8,3.4-6-7.5-1.7-8.2c5.4-.9,12.7-2.3,14.9-7.5.9-2,3.2-3.7,4-3.7,7.4,0,2.7,8.8,10.1,14.6.3.8-1.2,1.8-1.2,2.4s1.5.3,2,0c3.1-1.2,9.4-8.5,9.4-5.2,0,16.6-13.4,14.1-15.8,20.9h0ZM70.1,70.7c-5.2,0-12.4-8-12.4-11.1s2.3-1.4,7-5.1c5.4-4.3,5.1-12.3,5.4-13.7,1-4.6-4.5-1.2-8,2-6-9-2.2-11.4-8.9-17-.1-.1-.2-.3-.3-.4,7.1-3.1,9.5-2.5,12.8-.3,12.9,7.1,2.3,17.4,6.1,36.6,1,3.9,3.5,8.9-1.6,8.9h0Z"/>
    </g>
    <path id="Trazado_10908" class="st1" d="M0,16.3c0,6.4,5.2,15.8,15.8,15.8s15.7-10.9,15.7-15.6c0-7.8-6-9-8.3-9-4.8,0-10.2,3.5-10.2,7.1-.1,1.3.8,2.4,2.1,2.5,0,0,.2,0,.3,0,1.5,0,2.7-1,3.1-2.5-.5.6-1.2,1-2,1-.3,0-.6-.2-.6-.4,0,0,0,0,0-.1,0-1.8,1.9-3.7,4.6-3.7,2.1-.1,3.9,1.5,4,3.5,0,.2,0,.4,0,.5,0,1.1-.6,8.3-9,8.3s-10.6-4.9-10.6-10.8S9.8,2.9,14.2,2.9c2.4,0,4.6,1.4,5.5,3.7,1.6-.7,3.3-1.1,5-1.1,1.3,0,2.5.2,3.7.5C28.5,6.1,25.3,0,16.2,0,1.7,0,0,14.1,0,16.3Z"/>
    <path id="Trazado_10909" class="st1" d="M12.2,44c1,.2,2,.3,3,.3-.4-3.1-1-6.2-2-7.8-1.8-3.2-4.1-5-8.6-6.1-1.5-.3-3-.6-4.6-.7,0,.6.2,1.1.4,1.7.5,1.3,1,2.6,1.6,3.8,1.8,3.5,4.9,7.6,10.1,8.8Z"/>
    <path id="Trazado_10910" class="st1" d="M28.8,35.2c-8.1-.3-10.8,2.9-11.8,8.8,4.7-1,9.2-2.3,11.8-8.8Z"/>
    <path id="Trazado_10911" class="st1" d="M60.3,50c-.3.8.7,1.1.9.4,1-2.2,2.4-4.1,4.2-5.8.7.6.3,2.6-.4,3.7-.4.6.4,1,.7.4.7-1.3,1.3-3.4.4-4.6-.4-.4,1.9-1.4,1.7-1.8-.5-.8-5.8,2.2-7.5,7.6Z"/>
  </g>
</svg>