<svg id="Grupo_1989" data-name="Grupo 1989" xmlns="http://www.w3.org/2000/svg" width="153.787" height="70.802" viewBox="0 0 153.787 70.802">
  <g id="Grupo_1985" data-name="Grupo 1985" transform="translate(0)">
    <path id="Trazado_11303" data-name="Trazado 11303" d="M123.593,1.594q.548-.087,1.1-.177c.2,1.288.438,2.57.606,3.863.121,1.036-.986,1.676-1.883,1.778-.843.156-2.015-.11-2.246-1.06-.251-1.3-.421-2.608-.644-3.91.363-.058.727-.116,1.094-.177.212,1.246.385,2.5.613,3.738.226.98,2.056.671,1.953-.329-.177-1.242-.4-2.481-.59-3.725" transform="translate(-16.27 1.146)" fill="#4B5563"/>
    <path id="Trazado_11304" data-name="Trazado 11304" d="M126.023,1.365q.586.06,1.175.121c.222,1.318.429,2.639.72,3.946.552-1.221,1.018-2.476,1.5-3.724l1.157.118q-1.142,2.534-2.291,5.067c-.344-.036-.682-.072-1.022-.107q-.618-2.713-1.242-5.422" transform="translate(-11.823 1.104)" fill="#4B5563"/>
    <path id="Trazado_11305" data-name="Trazado 11305" d="M131.178,2.059q1.79.751,3.582,1.5c-.121.277-.233.553-.351.83-.845-.354-1.691-.705-2.534-1.06-.143.338-.286.676-.425,1.013.736.307,1.476.617,2.212.928q-.184.434-.364.866l-2.215-.928q-.277.659-.555,1.322c.848.356,1.7.709,2.544,1.065-.116.275-.233.552-.347.83q-1.79-.746-3.582-1.5,1.017-2.433,2.035-4.866" transform="translate(-9.3 1.665)" fill="#4B5563"/>
    <path id="Trazado_11306" data-name="Trazado 11306" d="M117.024,3.476l.984-.595,4.315,3.548q-.472.288-.944.577c-.307-.259-.615-.519-.919-.779-.534.322-1.067.647-1.6.971.089.391.177.783.268,1.174q-.472.285-.942.573c-.391-1.823-.772-3.646-1.163-5.469m1.065.649c.188.714.378,1.429.562,2.143q.534-.328,1.078-.655-.819-.746-1.64-1.488" transform="translate(-19.098 2.33)" fill="#4B5563"/>
    <path id="Trazado_11307" data-name="Trazado 11307" d="M168.26.532A40.53,40.53,0,0,1,186.314,1.66a19.712,19.712,0,0,1,9.536,7.067q10.406,0,20.811,0V62.08H195.839a19.724,19.724,0,0,1-7.221,6.053,24.726,24.726,0,0,1-6.921,2.082,40.473,40.473,0,0,1-13.645.016,24.057,24.057,0,0,1-7.6-2.373,19.577,19.577,0,0,1-6.632-5.778H62.874V8.728h90.941a19.648,19.648,0,0,1,7.1-6.033A24.742,24.742,0,0,1,168.26.532m3.252.564c-4.156.378-8.465,1.163-11.959,3.592a18.248,18.248,0,0,0-5.809,6.769,45.653,45.653,0,0,0-3.452,9.643A61.6,61.6,0,0,0,148.5,32.505a59.139,59.139,0,0,0,2.818,20.82,28.652,28.652,0,0,0,4.742,9.565,16.864,16.864,0,0,0,7.236,5.156,31.9,31.9,0,0,0,7.811,1.62,39.358,39.358,0,0,0,13.064-.968,17.4,17.4,0,0,0,8.042-4.42,20.777,20.777,0,0,0,4.447-6.729,53.668,53.668,0,0,0,3.015-9.619,55.382,55.382,0,0,0,1.434-12.424,56.285,56.285,0,0,0-1.619-13.448,49.614,49.614,0,0,0-3.271-9.776,19.689,19.689,0,0,0-4.434-6.176,17.679,17.679,0,0,0-7.715-4.038,39.341,39.341,0,0,0-12.56-.973M63.921,9.775V61.037h89.21A39.117,39.117,0,0,1,149.4,52.92a58.754,58.754,0,0,1-2.629-11.532,44.07,44.07,0,0,1-.179-10.342,58.878,58.878,0,0,1,2.613-12.585,40.164,40.164,0,0,1,3.912-8.686Zm132.623,0a40.7,40.7,0,0,1,4.092,9.243,59.038,59.038,0,0,1,2.438,12.041,43.485,43.485,0,0,1-.114,9.771,59.2,59.2,0,0,1-2.64,11.927,39.339,39.339,0,0,1-3.785,8.281h19.083q0-25.632,0-51.262Z" transform="translate(-62.874 0)" fill="#4B5563"/>
    <path id="Trazado_11308" data-name="Trazado 11308" d="M131.923,7.675q2.091-1.6,4.187-3.2A11.852,11.852,0,0,1,138.017,7.3a1.357,1.357,0,0,1-2,1.479c.1,1.056-.966,1.555-1.553,2.241-.224-.306-.45-.6-.671-.91.461-.468,1.148-.79,1.358-1.454a3.866,3.866,0,0,0-.826-1.4c-.573.436-1.147.875-1.718,1.313l-.684-.9m3.112-.958a5.542,5.542,0,0,0,1.128,1.3.752.752,0,0,0,.857-.577,4.1,4.1,0,0,0-.928-1.53l-1.058.81" transform="translate(-7.053 3.621)" fill="#4B5563"/>
    <path id="Trazado_11309" data-name="Trazado 11309" d="M130.224,5.262a30.9,30.9,0,0,1,10.655.957,9.265,9.265,0,0,1,5.839,4.834,43.177,43.177,0,0,1,3.335,11.057,53.573,53.573,0,0,1-1.015,22.88,37.564,37.564,0,0,1-2.346,6.474,9.269,9.269,0,0,1-5.865,4.8,30.858,30.858,0,0,1-16.122-.036,9.26,9.26,0,0,1-5.834-4.961,43.564,43.564,0,0,1-3.288-11.055A53.52,53.52,0,0,1,116.726,17.1a36.931,36.931,0,0,1,2.253-6.12,9.261,9.261,0,0,1,5.827-4.769,30.736,30.736,0,0,1,5.418-.951M139.19,9.58a4.59,4.59,0,0,0-.949,2.456q.323.439.647.879a5.229,5.229,0,0,0,2.548-1.094A1.586,1.586,0,1,0,139.19,9.58M122.6,11.215a3.353,3.353,0,0,0,.5,2.711,3.05,3.05,0,0,1-1.237-1.38,6.1,6.1,0,0,0,.984,4.684c.528,0,1.058,0,1.588-.007.935-1.109.421-2.572.136-3.816a1.981,1.981,0,0,1,.781,1.532,4.871,4.871,0,0,0-.5-3.921c-.275.239-.546.479-.821.714a4.092,4.092,0,0,1,.011-1.819,2.25,2.25,0,0,0-1.447,1.3m14.7.59a3.99,3.99,0,0,0-.684,1.423,2.906,2.906,0,0,0,1.32,2.192c.239,1.074-.284,2.121-.168,3.2a9.781,9.781,0,0,1-2.025,1.166,2.307,2.307,0,0,0-1.262,1.143,5.227,5.227,0,0,1-.756-.121,5.245,5.245,0,0,1-.315-.716,4.632,4.632,0,0,0,1.11-1.875c.425-.835-.174-1.7-.6-2.4-.309-.45-.87-.217-1.295-.123-.3-.049-.6-.157-.9-.186-1,.36-1.208,1.53-1.385,2.445a12.188,12.188,0,0,0,1.081,1.814,4.342,4.342,0,0,1,.5,1.8c-.165.188-.327.378-.49.568a2.088,2.088,0,0,0-1.756.939,8.23,8.23,0,0,1-2.083,2.447,17.426,17.426,0,0,1-2.118-1.931,9.829,9.829,0,0,0-2.208-2.025,1.972,1.972,0,0,0-1.5-.034c.148.783.085,1.8.828,2.3.528.174,1.147.119,1.6.492,1.089.846,1.412,2.322,2.483,3.19.257.177.552.618.9.405A12.563,12.563,0,0,0,130.5,25.1a1.4,1.4,0,0,0,1.212,1.186,17.054,17.054,0,0,1,.655,2.054,13.317,13.317,0,0,0-3.693,8.9c-1.519,1.731-1.722,4.112-2.044,6.29-.206,1.326-1.74,1.837-2.141,3.067a1.567,1.567,0,0,0,1.217,2.022,25.523,25.523,0,0,1,1.839-3c.438-.532.286-1.255.472-1.877.474-1.884,1.79-3.38,2.975-4.865a3.788,3.788,0,0,1-.1-2.506,35.286,35.286,0,0,0,1.687,5.543,5.016,5.016,0,0,0-.626,1.942,13.333,13.333,0,0,1-1.009,2.156,2.707,2.707,0,0,0,2.4-.8c-.143-1.174.91-1.9,1.306-2.884-.09-.533-.631-.879-.667-1.427a18.648,18.648,0,0,0-.273-4.344,4.889,4.889,0,0,0-.935-1.675c.723-.582,1.441-1.17,2.186-1.723a2.817,2.817,0,0,0,1.262-1.812,10.679,10.679,0,0,0-.859-4.646c.114-1.127.5-2.21.6-3.34a3.9,3.9,0,0,1,.774-1.832,20.684,20.684,0,0,0,2.662-1.85,28.53,28.53,0,0,0-.2-4.6A7.239,7.239,0,0,0,137.3,11.8m-2.387,3.935c.221.224.447.448.671.673.391-.429.783-.855,1.174-1.286-.161-.28-.318-.559-.476-.835-.459.481-.913.966-1.369,1.449M121.933,17.81c0,.288,0,.575,0,.861h.758c.089.705.2,1.409.32,2.11a8,8,0,0,1,1.179.673c.1-.928.222-1.854.333-2.781l.8-.005c-.013-.286-.027-.571-.038-.859q-1.676,0-3.355,0m20.7,3.425c-.013,1.6.024,3.2-.022,4.8a1.7,1.7,0,0,1-.911.013c-.054-1.555-.011-3.112-.025-4.669l-1.854.241c-.072.783.206,1.66-.257,2.358a27.685,27.685,0,0,1-2.289,3.239c.684.045,1.369.092,2.053.161.2.434.4.872.6,1.307h4.087c.116-.49.233-.978.349-1.467l1.141-.168c0-1.23,0-2.456,0-3.686l-.973.163c0-.933,0-1.866,0-2.8-.633.165-1.264.342-1.9.508M123.1,24.478c-.025,1.186.072,2.373.1,3.559.284,0,.568,0,.852,0,.013-1.06.054-2.119.081-3.179a5.141,5.141,0,0,0-1.029-.382m-3.516,5.355v2.633h9.035c0-.877,0-1.756,0-2.633Zm17.652,0q0,1.316,0,2.633c3.018-.02,6.035.034,9.051.025V29.833q-4.525,0-9.051,0m-1.215,4.049c.007,2.584-.016,5.17-.025,7.753h2.653V33.873c-.875.042-1.752-.022-2.628.009m5.847.718c0,.438,0,.877,0,1.317.783.749,1.57,1.5,2.349,2.25a3.9,3.9,0,0,0,1.139-2.995c-.459-.43-.93-.848-1.414-1.248,0,1.015.246,2.266-.662,2.991-.036-.75-.02-1.5-.02-2.255q-.339-.41-.678-.817-.358.377-.711.758m-1.975.36a3.588,3.588,0,0,0,.543,2.555c1.183,1.364,2.633,2.452,3.9,3.733a2.078,2.078,0,0,1,.49,1.071,5.637,5.637,0,0,0,.521-1.065,1.628,1.628,0,0,0-.526-1.389c-1.083-1.112-2.232-2.165-3.3-3.291-.591-.741-.316-1.778-.331-2.648q-.646.518-1.291,1.034m-16.724.986c-.118,1.28.052,2.57-.034,3.85.045.541-.931.539-.964.049-.047-.823-.005-1.649-.018-2.47a5.113,5.113,0,0,0-.316-2.543c-.747.237-1.492.485-2.237.727.295.259.758.458.765.911.058,1.722-.022,3.447.034,5.167a1.872,1.872,0,0,0,1.747,1.45,2.157,2.157,0,0,0,2.333-.9c.486-1.136.04-2.42.351-3.579.363-.713,1.284-.432,1.832-.125a7.2,7.2,0,0,0-.4-3.118,1.793,1.793,0,0,0-3.094.575m16.779,3.687a4.245,4.245,0,0,0,1.3,1.666c.841.817,1.676,1.638,2.492,2.481.617.734.322,1.785.347,2.658q.646-.515,1.295-1.033a3.629,3.629,0,0,0-.544-2.552c-1.168-1.369-2.633-2.441-3.885-3.727a2.218,2.218,0,0,1-.519-1.085c-.232.5-.656,1-.49,1.591m-.056,4.991c-.089.893.933,1.255,1.441,1.816.005-1.011-.253-2.282.676-2.991.016.754.009,1.506.009,2.259.224.271.448.541.676.812.23-.241.474-.472.68-.736a8.485,8.485,0,0,0,.038-1.322c-.781-.76-1.572-1.508-2.358-2.259a4.641,4.641,0,0,0-1.163,2.421m-4.642-2.28c-.092,1.076-1.194,1.731-1.241,2.83-.038.825-.971,1.043-1.581,1.342a3.812,3.812,0,0,0,1.186.982,2.73,2.73,0,0,0,3.215-4.257,2.992,2.992,0,0,0-1.581-.9m-3.105,6.825c-.924,0-1.846,0-2.769,0q0,.651,0,1.3h2.769c0,1.063,0,2.125,0,3.188h1.79c0-1.063,0-2.125,0-3.188H136.7c0-.436,0-.87,0-1.3h-2.76q-.458-.526-.911-1.049c-.295.349-.591.7-.884,1.047m-5.91,2.414a2.674,2.674,0,0,0,2.991,2.32,2.634,2.634,0,0,0,2.282-2.322q-2.637-.052-5.273,0m8.317,0a3,3,0,0,0,.642,1.447,2.664,2.664,0,0,0,3.646.329,2.949,2.949,0,0,0,.987-1.783c-1.758-.018-3.517-.031-5.275.007" transform="translate(-20.874 4.166)" fill="#4B5563"/>
    <path id="Trazado_11310" data-name="Trazado 11310" d="M113.477,8.736c.633-1.132,1.259-2.264,1.9-3.393l.783.443c-.449.8-.892,1.6-1.336,2.4.318.175.635.354.955.533q.583-1.044,1.168-2.091c.273.15.548.3.825.452q-.586,1.05-1.174,2.1l1.251.7c.445-.8.9-1.606,1.344-2.409.26.148.523.293.785.439q-.941,1.7-1.892,3.393c-1.534-.855-3.067-1.718-4.6-2.57" transform="translate(-21.965 4.32)" fill="#4B5563"/>
    <path id="Trazado_11311" data-name="Trazado 11311" d="M133.833,10.48c1.613-.7,3.226-1.4,4.841-2.087q.222.515.445,1.033c-1.613.7-3.23,1.389-4.839,2.091-.15-.345-.3-.691-.447-1.036" transform="translate(-5.508 6.785)" fill="#4B5563"/>
    <path id="Trazado_11312" data-name="Trazado 11312" d="M113.16,10.035a1.365,1.365,0,0,1,2.436.7c.758-.727,1.819-.145,2.707-.074q-.168.534-.338,1.069c-.64-.089-1.3-.459-1.942-.241-.429.371-.481.989-.675,1.494q1.034.307,2.071.62c-.109.356-.213.716-.318,1.074q-2.523-.751-5.046-1.5a13.02,13.02,0,0,1,1.1-3.138m.6.821a5.7,5.7,0,0,0-.546,1.488q.637.19,1.279.382a12.049,12.049,0,0,0,.382-1.378c.174-.588-.792-1.005-1.114-.492" transform="translate(-23.114 7.682)" fill="#4B5563"/>
    <path id="Trazado_11313" data-name="Trazado 11313" d="M66.388,7.128h1.4q0,3.28,0,6.561c-.468,0-.933,0-1.4,0Z" transform="translate(-60.034 5.763)" fill="#4B5563"/>
    <path id="Trazado_11314" data-name="Trazado 11314" d="M68.794,7.25a3.092,3.092,0,0,1,2.443.128,1.9,1.9,0,0,1,.647,1.687q-.67,0-1.338,0a3.936,3.936,0,0,0-.212-.788.668.668,0,0,0-1.125.271c-.148.485.275.873.653,1.09.714.436,1.617.765,1.953,1.6a1.869,1.869,0,0,1-.861,2.407,3.394,3.394,0,0,1-2.548-.076c-.664-.365-.729-1.194-.729-1.87q.692,0,1.383,0c.033.441.058,1.134.664,1.136a.709.709,0,0,0,.628-1.181c-.617-.667-1.584-.883-2.165-1.591a1.817,1.817,0,0,1,.606-2.814" transform="translate(-58.99 5.709)" fill="#4B5563"/>
    <path id="Trazado_11315" data-name="Trazado 11315" d="M71.751,7.228c.989-.3,2.387-.266,2.951.749a7.588,7.588,0,0,1,.342,3.215c-.007.9-.159,2.036-1.092,2.443a3.09,3.09,0,0,1-2.492-.087,2.454,2.454,0,0,1-.924-2.177,14.437,14.437,0,0,1,.114-2.8,1.73,1.73,0,0,1,1.1-1.347m.543,1.02a2.61,2.61,0,0,0-.356,1.532,8.874,8.874,0,0,0,.177,2.6.722.722,0,0,0,1.369-.072,10.872,10.872,0,0,0,.049-3.525.757.757,0,0,0-1.239-.533" transform="translate(-56.689 5.709)" fill="#4B5563"/>
    <path id="Trazado_11316" data-name="Trazado 11316" d="M66.388,11.929h1.4q0,3.28,0,6.561c-.468,0-.933,0-1.4,0Z" transform="translate(-60.034 9.644)" fill="#4B5563"/>
    <path id="Trazado_11317" data-name="Trazado 11317" d="M68.794,12.05a3.092,3.092,0,0,1,2.443.128,1.9,1.9,0,0,1,.647,1.687q-.67,0-1.338,0a3.936,3.936,0,0,0-.212-.788.668.668,0,0,0-1.125.271c-.148.485.275.873.653,1.09.714.436,1.617.765,1.953,1.6a1.869,1.869,0,0,1-.861,2.407,3.394,3.394,0,0,1-2.548-.076c-.664-.365-.729-1.194-.729-1.87q.692,0,1.383,0c.033.441.058,1.134.664,1.136a.709.709,0,0,0,.628-1.181c-.617-.667-1.584-.883-2.165-1.591a1.817,1.817,0,0,1,.606-2.814" transform="translate(-58.99 9.59)" fill="#4B5563"/>
    <path id="Trazado_11318" data-name="Trazado 11318" d="M71.751,12.029c.989-.3,2.387-.266,2.951.749a7.588,7.588,0,0,1,.342,3.215c-.007.9-.159,2.036-1.092,2.443a3.09,3.09,0,0,1-2.492-.087,2.454,2.454,0,0,1-.924-2.177,14.437,14.437,0,0,1,.114-2.8,1.73,1.73,0,0,1,1.1-1.347m.543,1.02a2.61,2.61,0,0,0-.356,1.532,8.874,8.874,0,0,0,.177,2.6.722.722,0,0,0,1.369-.072,10.872,10.872,0,0,0,.049-3.525.757.757,0,0,0-1.239-.533" transform="translate(-56.689 9.591)" fill="#4B5563"/>
    <path id="Trazado_11319" data-name="Trazado 11319" d="M75.636,7.3a1.931,1.931,0,0,1,2.2.611,5.8,5.8,0,0,1,.363,2.64,4.74,4.74,0,0,1-.458,2.525,2.12,2.12,0,0,1-2.378.494c-.62-.192-.76-.881-.8-1.443.42,0,.837,0,1.255-.005.056.459.49.886.926.51a5.408,5.408,0,0,0,.152-1.767,1.624,1.624,0,0,1-1.868.036,2.432,2.432,0,0,1-.477-2.121A1.657,1.657,0,0,1,75.636,7.3m.523.841c-.307.145-.329.533-.356.828a1.656,1.656,0,0,0,.291,1.28.494.494,0,0,0,.676-.268,2.788,2.788,0,0,0,.074-1.364c-.02-.322-.369-.651-.685-.477" transform="translate(-53.472 5.82)" fill="#4B5563"/>
    <path id="Trazado_11320" data-name="Trazado 11320" d="M77.739,7.319a2.837,2.837,0,0,1,1.729.027,1.369,1.369,0,0,1,.794,1.069,13.429,13.429,0,0,1,.137,2.839,3.19,3.19,0,0,1-.552,2.02,2.11,2.11,0,0,1-1.948.353,1.627,1.627,0,0,1-1.076-1.468,14.506,14.506,0,0,1,0-3.407,1.582,1.582,0,0,1,.919-1.432m.5.948a2.5,2.5,0,0,0-.206,1.221c.011.89-.043,1.785.056,2.671.031.248.118.642.452.6.423.074.512-.467.526-.776a21.74,21.74,0,0,0-.031-3.38.477.477,0,0,0-.8-.335" transform="translate(-51.68 5.819)" fill="#4B5563"/>
    <path id="Trazado_11321" data-name="Trazado 11321" d="M80.008,7.3a2.349,2.349,0,0,1,2.034.269,3.416,3.416,0,0,1,.573,2.266,7.9,7.9,0,0,1-.32,3.1,1.892,1.892,0,0,1-2.365.624c-.758-.318-.91-1.235-.955-1.959a17.185,17.185,0,0,1,.081-2.989A1.471,1.471,0,0,1,80.008,7.3m.4,1.036a13.584,13.584,0,0,0-.072,3.971.444.444,0,0,0,.877.1,15.393,15.393,0,0,0,.112-2.754,3.235,3.235,0,0,0-.2-1.394c-.186-.15-.618-.172-.716.08" transform="translate(-49.878 5.819)" fill="#4B5563"/>
    <path id="Trazado_11322" data-name="Trazado 11322" d="M82.565,7.251h1.194q0,3.171,0,6.339H82.38c0-1.608-.007-3.217.007-4.823-.349.239-.705.467-1.065.693,0-.409-.005-.812-.007-1.217a6.55,6.55,0,0,0,1.25-.991" transform="translate(-47.966 5.862)" fill="#4B5563"/>
    <path id="Trazado_11323" data-name="Trazado 11323" d="M138.464,10.662l.868-.219c.345,1.378.709,2.752,1.056,4.13-.289.071-.577.143-.864.215q-.19-.76-.385-1.514-2.108.543-4.21,1.083-.141-.545-.279-1.089c1.4-.356,2.8-.727,4.206-1.081q-.2-.765-.392-1.526" transform="translate(-4.848 8.443)" fill="#4B5563"/>
    <path id="Trazado_11324" data-name="Trazado 11324" d="M111.9,13.67c1.327.228,2.669.383,3.989.653.948.306,1.15,1.506.967,2.364-.123.855-.769,1.855-1.745,1.751-1.293-.17-2.577-.4-3.866-.595.058-.367.114-.731.174-1.1,1.232.184,2.458.4,3.691.57,1.02.161,1.355-1.711.367-1.946-1.244-.226-2.5-.394-3.747-.6.056-.365.112-.732.17-1.1" transform="translate(-23.766 11.051)" fill="#4B5563"/>
    <path id="Trazado_11325" data-name="Trazado 11325" d="M135.089,14.064c1.823.367,3.649.725,5.472,1.1q.079.57.157,1.138-2.482,1.275-4.961,2.555-.079-.548-.152-1.092c.358-.179.718-.36,1.08-.539-.087-.617-.175-1.233-.259-1.85l-1.188-.221c-.051-.363-.1-.729-.15-1.09m2.268,1.485q.084.624.174,1.251,1.009-.458,2.02-.92l-2.194-.331" transform="translate(-4.493 11.37)" fill="#4B5563"/>
    <path id="Trazado_11326" data-name="Trazado 11326" d="M135.821,18.667a1.983,1.983,0,0,1,1.364-.823q.033.507.076,1.011a1.394,1.394,0,0,0-.7,2.147.559.559,0,0,0,.9-.011c.521-.741.273-1.781.848-2.5a1.474,1.474,0,0,1,2.266.074,2.776,2.776,0,0,1,.2,2.727,1.9,1.9,0,0,1-1.344.906c-.027-.34-.052-.678-.081-1.016,1.1-.1,1.1-2.186-.06-2.083-.7.788-.376,2.049-1.114,2.828a1.532,1.532,0,0,1-2.376-.382,3.123,3.123,0,0,1,.011-2.881" transform="translate(-4.191 14.426)" fill="#4B5563"/>
    <path id="Trazado_11327" data-name="Trazado 11327" d="M113.494,18.793a1.489,1.489,0,0,1,2.637-.074,14.408,14.408,0,0,1,.179,3.49h-5.232a18.554,18.554,0,0,1,.13-3.326,1.272,1.272,0,0,1,2.286-.09m.5.87a11.174,11.174,0,0,0-.036,1.414h1.459a6.919,6.919,0,0,0-.083-1.608.721.721,0,0,0-1.34.194m-2.051-.071a9.139,9.139,0,0,0-.043,1.51c.42,0,.837-.013,1.259-.027a10.085,10.085,0,0,0-.051-1.5c-.069-.579-1.071-.523-1.165.014" transform="translate(-23.912 14.517)" fill="#4B5563"/>
    <path id="Trazado_11328" data-name="Trazado 11328" d="M103.795,19.981a2.99,2.99,0,0,1,1.884-.452,2.019,2.019,0,0,1,1.629.673,2.744,2.744,0,0,1,.353,1.51c-.494,0-.986,0-1.477,0-.067-.43-.125-1.11-.714-1.092a.767.767,0,0,0-.591,1.28c.705.754,1.857.94,2.478,1.8.722,1.007.407,2.816-.917,3.139a3.619,3.619,0,0,1-2.709-.224,2.313,2.313,0,0,1-.713-2c.51-.007,1.02-.007,1.53-.011.072.363.005.8.284,1.094a.838.838,0,0,0,1.264-.217.928.928,0,0,0-.311-1.11c-.808-.662-1.955-.966-2.458-1.955a2.106,2.106,0,0,1,.468-2.438" transform="translate(-30.421 15.787)" fill="#4B5563"/>
    <path id="Trazado_11329" data-name="Trazado 11329" d="M66.426,19.6c.966.005,1.93-.009,2.9,0a1.932,1.932,0,0,1,1.57.628c.629.915.43,2.521-.779,2.836,1.25.19,1.459,1.72,1.081,2.7A1.833,1.833,0,0,1,69.5,26.8c-1.024.051-2.049.007-3.073.022q0-3.611,0-7.225m1.534,1.128v1.821a4.923,4.923,0,0,0,1.326-.089.951.951,0,0,0-.148-1.693,7.992,7.992,0,0,0-1.177-.04m0,2.948v2.02a4.487,4.487,0,0,0,1.4-.109,1.184,1.184,0,0,0,.271-1.611c-.421-.468-1.121-.248-1.673-.3" transform="translate(-60.003 15.841)" fill="#4B5563"/>
    <path id="Trazado_11330" data-name="Trazado 11330" d="M69.769,19.6H71.3q0,2.431,0,4.861a1.554,1.554,0,0,0,.349,1.186.984.984,0,0,0,1.137.02,1.48,1.48,0,0,0,.374-1.2q-.005-2.436,0-4.872h1.53c0,1.734.005,3.467,0,5.2a2.033,2.033,0,0,1-1.309,1.957,3.521,3.521,0,0,1-2.586-.119A2,2,0,0,1,69.774,24.8c-.014-1.736,0-3.472-.005-5.208" transform="translate(-57.302 15.841)" fill="#4B5563"/>
    <path id="Trazado_11331" data-name="Trazado 11331" d="M73.137,19.6c1.053.02,2.107-.04,3.158.029,1.742.235,1.845,3.3.1,3.633a1.258,1.258,0,0,1,1.161,1.022c.078.845.038,1.7.181,2.541-.506,0-1.015,0-1.519-.005-.206-.808-.022-1.651-.2-2.458-.177-.568-.875-.506-1.349-.557-.007,1.005,0,2.013,0,3.02-.512,0-1.022,0-1.534,0Zm1.534,1.119v2a2.787,2.787,0,0,0,1.034-.121,1.354,1.354,0,0,0,.259-1.521c-.241-.483-.863-.306-1.293-.354" transform="translate(-54.577 15.839)" fill="#4B5563"/>
    <path id="Trazado_11332" data-name="Trazado 11332" d="M76.222,19.6H80.17v1.132H77.756v1.747h2.215V23.61H77.756v2.078h2.481c0,.378,0,.752,0,1.132H76.222q0-3.613,0-7.225" transform="translate(-52.084 15.841)" fill="#4B5563"/>
    <path id="Trazado_11333" data-name="Trazado 11333" d="M78.664,26.82q1-3.613,2-7.225h2.009q.979,3.613,1.96,7.226c-.539,0-1.078,0-1.617,0-.132-.533-.266-1.063-.4-1.6-.676,0-1.353,0-2.029,0q-.206.8-.409,1.6c-.506,0-1.011,0-1.519,0m2.912-5.8q-.342,1.533-.678,3.071h1.4c-.242-1.022-.477-2.049-.722-3.071" transform="translate(-50.109 15.841)" fill="#4B5563"/>
    <path id="Trazado_11334" data-name="Trazado 11334" d="M82.322,19.6h1.53q0,2.431,0,4.865a1.585,1.585,0,0,0,.34,1.172.957.957,0,0,0,1.232-.043,1.652,1.652,0,0,0,.293-1.138q0-2.428,0-4.856h1.532c0,1.731.005,3.463,0,5.194a2.055,2.055,0,0,1-1.109,1.874,3.584,3.584,0,0,1-2.422.125,1.938,1.938,0,0,1-1.374-1.81c-.04-1.792,0-3.588-.016-5.382" transform="translate(-47.154 15.841)" fill="#4B5563"/>
    <path id="Trazado_11335" data-name="Trazado 11335" d="M86.607,19.6q.8,0,1.6,0,.553,2.6,1.11,5.21.629-2.607,1.251-5.212c.506,0,1.011,0,1.517,0q-.955,3.608-1.91,7.221c-.6,0-1.192,0-1.789,0C87.8,24.411,87.195,22,86.607,19.6" transform="translate(-43.688 15.841)" fill="#4B5563"/>
    <path id="Trazado_11336" data-name="Trazado 11336" d="M89.987,19.6h3.968v1.132H91.521v1.747h2.237c0,.38,0,.756,0,1.136-.747,0-1.492,0-2.237,0v2.078h2.5c0,.378,0,.752,0,1.132q-2.018,0-4.036,0Z" transform="translate(-40.956 15.841)" fill="#4B5563"/>
    <path id="Trazado_11337" data-name="Trazado 11337" d="M92.73,19.6c1.054.02,2.112-.042,3.165.029,1.732.248,1.834,3.291.1,3.63a1.267,1.267,0,0,1,1.157,1.02c.078.846.038,1.705.179,2.546-.5,0-1.013,0-1.517-.005-.212-.81-.014-1.66-.2-2.469-.186-.561-.875-.494-1.345-.546-.007,1.005,0,2.015,0,3.02-.512,0-1.022,0-1.534,0Zm1.534,1.119v2a2.8,2.8,0,0,0,1.034-.121,1.355,1.355,0,0,0,.253-1.532c-.25-.47-.859-.295-1.288-.344" transform="translate(-38.738 15.839)" fill="#4B5563"/>
    <path id="Trazado_11338" data-name="Trazado 11338" d="M95.816,19.6H97.35V26.82q-.768,0-1.534,0,0-3.611,0-7.225" transform="translate(-36.243 15.841)" fill="#4B5563"/>
    <path id="Trazado_11339" data-name="Trazado 11339" d="M97.03,19.6H101.9v1.221h-1.658q0,3,0,6-.768,0-1.53,0v-6H97.03Z" transform="translate(-35.261 15.841)" fill="#4B5563"/>
    <path id="Trazado_11340" data-name="Trazado 11340" d="M101.462,19.6h2.009q.982,3.613,1.962,7.225c-.539,0-1.078,0-1.617,0l-.4-1.593q-1.017,0-2.034,0c-.134.533-.271,1.065-.405,1.6-.506,0-1.011,0-1.519,0l2-7.225m.911,1.421c-.23,1.025-.452,2.051-.682,3.078h1.4c-.237-1.029-.479-2.053-.716-3.078" transform="translate(-33.297 15.841)" fill="#4B5563"/>
    <path id="Trazado_11341" data-name="Trazado 11341" d="M67,25.977a2.639,2.639,0,0,1,2.6-.282c.729.342.85,1.219.863,1.935-.443.011-.886.013-1.329.022-.083-.407.007-.968-.438-1.183a.726.726,0,0,0-.8.5,8.52,8.52,0,0,0-.159,2.28,3.735,3.735,0,0,0,.251,1.59.6.6,0,0,0,1.04.005,4.3,4.3,0,0,0,.166-1c.447,0,.893,0,1.338.007-.029.79-.166,1.821-1.033,2.125a2.611,2.611,0,0,1-2.581-.425,4.376,4.376,0,0,1-.564-2.841c.018-.93-.067-2.025.646-2.74" transform="translate(-60.064 20.6)" fill="#4B5563"/>
    <path id="Trazado_11342" data-name="Trazado 11342" d="M76.349,25.933c.391-.506,1.112-.378,1.675-.416l.016.8-.5.166a2.916,2.916,0,0,0-.116,1.013l.593,0c0,.266,0,.533,0,.8l-.579,0V32c-.43,0-.859,0-1.289,0V28.3c-.137,0-.414,0-.553,0v-.8c.143,0,.432,0,.575,0a3.42,3.42,0,0,1,.177-1.562" transform="translate(-52.588 20.63)" fill="#4B5563"/>
    <rect id="Rectángulo_804" data-name="Rectángulo 804" width="1.268" height="1" transform="translate(26.088 46.2)" fill="#4B5563"/>
    <path id="Trazado_11343" data-name="Trazado 11343" d="M84.917,25.547h1.264v1c-.421,0-.843,0-1.264,0Z" transform="translate(-45.054 20.653)" fill="#4B5563"/>
    <rect id="Rectángulo_805" data-name="Rectángulo 805" width="1.288" height="1" transform="translate(21.147 46.2)" fill="#4B5563"/>
    <path id="Trazado_11344" data-name="Trazado 11344" d="M73.37,26.475q.643-.288,1.288-.573v1.284c.215,0,.429,0,.646,0,0,.266,0,.533,0,.8h-.644a27.8,27.8,0,0,0,.058,2.827l.566.128c0,.251-.009.506-.014.76-.655.051-1.6.107-1.848-.675-.114-1.007-.018-2.027-.047-3.04l-.5,0c.009-.2.022-.6.031-.8.118,0,.349-.005.467-.005Z" transform="translate(-54.791 20.941)" fill="#4B5563"/>
    <path id="Trazado_11345" data-name="Trazado 11345" d="M83.721,26.471l1.264-.566c0,.427,0,.852,0,1.279h.646c0,.268,0,.535,0,.8-.215,0-.43,0-.646,0a27.853,27.853,0,0,0,.056,2.8,5.35,5.35,0,0,0,.581.172c-.011.248-.022.5-.029.747-.649.042-1.611.09-1.832-.7-.1-1-.011-2.018-.04-3.024-.168,0-.338,0-.506,0v-.8h.508c0-.237,0-.477,0-.713" transform="translate(-46.429 20.943)" fill="#4B5563"/>
    <path id="Trazado_11346" data-name="Trazado 11346" d="M69.083,27.875a1.423,1.423,0,0,1,1.17-1.259,2.177,2.177,0,0,1,2.031.461,3.26,3.26,0,0,1,.418,2.038c-.808,0-1.619-.009-2.431.014.078.452-.009,1.1.514,1.307.476.04.535-.476.642-.814.429,0,.857,0,1.288.016a1.7,1.7,0,0,1-.982,1.449,1.993,1.993,0,0,1-2.476-.642,5.248,5.248,0,0,1-.174-2.572m1.174.49c.4.016.8.02,1.2.024-.065-.394-.063-1.081-.631-1.025-.512.005-.49.642-.571,1" transform="translate(-57.916 21.472)" fill="#4B5563"/>
    <path id="Trazado_11347" data-name="Trazado 11347" d="M72.7,27.129a1.941,1.941,0,0,1,1.253-.593c0,.374-.016.749-.029,1.125-.392.089-.982.085-1.074.588-.128.968-.025,1.951-.058,2.926-.423,0-.845,0-1.27,0v-4.5c.414,0,.826,0,1.241,0-.016.114-.047.34-.063.454" transform="translate(-55.885 21.453)" fill="#4B5563"/>
    <path id="Trazado_11348" data-name="Trazado 11348" d="M74.568,26.611h1.288v4.5c-.429,0-.859,0-1.288,0Z" transform="translate(-53.421 21.513)" fill="#4B5563"/>
    <path id="Trazado_11349" data-name="Trazado 11349" d="M77.3,26.611h1.268v4.5c-.423,0-.845,0-1.268,0Z" transform="translate(-51.212 21.513)" fill="#4B5563"/>
    <path id="Trazado_11350" data-name="Trazado 11350" d="M79.45,26.715a2.6,2.6,0,0,1,2.161.163,1.94,1.94,0,0,1,.64,1.394c-.425.005-.848.007-1.275.007-.1-.322-.083-.9-.555-.892-.548-.065-.6.6-.6,1,.04.651-.146,1.425.278,1.982.6.284.85-.43.872-.9.425,0,.852,0,1.277,0a1.7,1.7,0,0,1-.884,1.6,2.406,2.406,0,0,1-2.311-.237,3.2,3.2,0,0,1-.515-2.286c.009-.693.183-1.553.911-1.832" transform="translate(-50.211 21.47)" fill="#4B5563"/>
    <path id="Trazado_11351" data-name="Trazado 11351" d="M81.555,26.847a2.736,2.736,0,0,1,1.89-.226,1.152,1.152,0,0,1,1.058,1.04c.078,1.165-.038,2.336.081,3.5-.4-.005-.8-.005-1.2-.005,0-.132,0-.4,0-.528a1.472,1.472,0,0,1-1.917.42,1.8,1.8,0,0,1-.309-2.1c.432-.751,1.418-.655,2.156-.7-.1-.335.054-.913-.43-.957-.448-.1-.535.367-.618.689-.411-.009-.819-.011-1.23-.022.087-.4.132-.873.514-1.109m.736,2.5c-.118.365-.13.892.255,1.1.826.078.741-.949.751-1.494-.338.09-.854-.013-1.005.391" transform="translate(-48.248 21.471)" fill="#4B5563"/>
    <path id="Trazado_11352" data-name="Trazado 11352" d="M84.917,26.611h1.264v4.5q-.632,0-1.264,0Z" transform="translate(-45.054 21.513)" fill="#4B5563"/>
    <path id="Trazado_11353" data-name="Trazado 11353" d="M87.1,26.708a2.58,2.58,0,0,1,2.024.114c.705.438.711,1.371.714,2.109-.014.727-.04,1.655-.745,2.076a2.55,2.55,0,0,1-2.186,0c-.763-.468-.74-1.483-.75-2.268-.007-.756.119-1.743.944-2.033m.734.7c-.389.139-.367.622-.392.958a4.67,4.67,0,0,0,.2,1.933.5.5,0,0,0,.83-.266,6.447,6.447,0,0,0,.02-2.228.5.5,0,0,0-.653-.4" transform="translate(-44.051 21.469)" fill="#4B5563"/>
    <path id="Trazado_11354" data-name="Trazado 11354" d="M88.664,26.652c.434,0,.866,0,1.3,0-.007.085-.024.253-.031.336.593-.62,1.953-.624,2.17.342.052,1.273,0,2.548.02,3.821-.423,0-.843,0-1.264,0-.029-1.156.058-2.32-.043-3.472a.426.426,0,0,0-.826-.005c-.085,1.156-.011,2.32-.036,3.478-.43,0-.859,0-1.289,0Z" transform="translate(-42.025 21.473)" fill="#4B5563"/>
    <path id="Trazado_11355" data-name="Trazado 11355" d="M129.916,34.053a2.057,2.057,0,0,1,2.494.429,1.287,1.287,0,0,1-.235,1.575,1.549,1.549,0,0,1,.832,2.506,2.824,2.824,0,0,1-3,.669,1.564,1.564,0,0,1-.336-2.568c-.376-.19-.817-.4-.893-.864a1.536,1.536,0,0,1,1.143-1.747m.369.74a.7.7,0,0,0-.38.953c.41.711,1.883.226,1.59-.633a.843.843,0,0,0-1.21-.32m.526,2.132a.815.815,0,0,0-.517,1.109c.414.946,2.217.4,1.942-.64-.152-.629-.928-.713-1.425-.468" transform="translate(-9.634 27.353)" fill="#4B5563"/>
    <path id="Trazado_11356" data-name="Trazado 11356" d="M119.057,34.446a1.776,1.776,0,0,0,1.852-.434l.819.277c-.548,1.671-1.09,3.344-1.64,5.015q-.532-.171-1.06-.344.564-1.725,1.128-3.447c-.438-.143-.873-.28-1.309-.421.069-.215.139-.43.21-.646" transform="translate(-17.624 27.497)" fill="#4B5563"/>
    <path id="Trazado_11357" data-name="Trazado 11357" d="M121.85,35.959a1.465,1.465,0,0,1,1.449-1.436c.9-.109,2.089.128,2.409,1.1a1.249,1.249,0,0,1-.691,1.458,1.554,1.554,0,0,1,.067,2.637,2.825,2.825,0,0,1-3.04-.206,1.552,1.552,0,0,1,.418-2.588c-.277-.266-.622-.546-.611-.968m1.523-.581a.688.688,0,0,0-.434.729c.172.819,1.745.8,1.713-.119-.031-.6-.8-.814-1.279-.609m-.219,2.2a.8.8,0,0,0-.382,1.206c.479.637,1.827.532,1.915-.376.036-.783-.92-1.056-1.534-.83" transform="translate(-15.46 27.89)" fill="#4B5563"/>
    <path id="Trazado_11358" data-name="Trazado 11358" d="M125.675,35.079a2.156,2.156,0,0,1,2.892.043,1.794,1.794,0,0,1-.09,2.414c-.559.532-1.232.935-1.742,1.521.832-.022,1.662-.094,2.492-.13.016.3.034.606.052.91-1.327.069-2.653.168-3.98.224.076-1.423,1.387-2.179,2.277-3.1.541-.456.25-1.559-.524-1.5-.608-.007-.8.642-.863,1.132-.333.014-.666.033-.995.051a2.09,2.09,0,0,1,.481-1.568" transform="translate(-12.493 27.927)" fill="#4B5563"/>
    <path id="Trazado_11359" data-name="Trazado 11359" d="M80.286,11.948a2.221,2.221,0,0,1,1.9.382,3.031,3.031,0,0,1,.5,1.761,16.141,16.141,0,0,1-.074,2.8,1.62,1.62,0,0,1-.989,1.414,2,2,0,0,1-2.087-.4,3.607,3.607,0,0,1-.494-2.034,11.074,11.074,0,0,1,.213-3.006,1.279,1.279,0,0,1,1.033-.919m.412.926c-.246.045-.277.329-.311.528-.078.615-.024,1.235-.04,1.852a7.4,7.4,0,0,0,.128,1.96c.076.264.394.3.617.222.217-.148.235-.434.271-.669.071-.857.047-1.716.043-2.575a3.78,3.78,0,0,0-.136-1.132.476.476,0,0,0-.573-.186" transform="translate(-49.808 9.622)" fill="#4B5563"/>
    <path id="Trazado_11360" data-name="Trazado 11360" d="M82.481,11.957a2.753,2.753,0,0,1,1.62.139,1.5,1.5,0,0,1,.7,1.109,13.558,13.558,0,0,1,.13,2.407,4.858,4.858,0,0,1-.374,2.119,1.441,1.441,0,0,1-1.143.673,1.975,1.975,0,0,1-1.546-.374,2.228,2.228,0,0,1-.548-1.349,17.005,17.005,0,0,1-.011-2.942,2.782,2.782,0,0,1,.365-1.277,1.254,1.254,0,0,1,.8-.5m.407.924c-.152.042-.2.21-.244.342a10.928,10.928,0,0,0-.08,1.854,11.525,11.525,0,0,0,.09,2,.435.435,0,0,0,.488.4c.241.009.369-.228.4-.432a11.868,11.868,0,0,0,.081-1.964,13.977,13.977,0,0,0-.049-1.7.588.588,0,0,0-.28-.5.875.875,0,0,0-.411.007" transform="translate(-48.015 9.622)" fill="#4B5563"/>
    <path id="Trazado_11361" data-name="Trazado 11361" d="M75.954,11.962c.414-.016.83-.005,1.246-.009q-.011,3.168,0,6.339c-.465,0-.93,0-1.394,0-.009-1.611-.005-3.224,0-4.836a7.467,7.467,0,0,1-1.067.691c0-.407,0-.814,0-1.221a3.816,3.816,0,0,0,1.215-.962" transform="translate(-53.285 9.664)" fill="#4B5563"/>
    <path id="Trazado_11362" data-name="Trazado 11362" d="M78.353,11.954q.844,0,1.684,0v3.9c.17,0,.342.005.514.009,0,.329-.005.658,0,.986l-.512.005c0,.479,0,.958,0,1.438-.421,0-.839,0-1.26,0,0-.481,0-.958,0-1.44-.651,0-1.3.005-1.949,0,.049-.548-.123-1.141.154-1.647.465-1.078.919-2.163,1.376-3.244m-.515,3.9c.349,0,.7,0,1.045,0,.051-.993.047-1.987.094-2.98-.392.987-.76,1.984-1.139,2.977" transform="translate(-51.604 9.663)" fill="#4B5563"/>
    <path id="Trazado_11363" data-name="Trazado 11363" d="M84.871,11.962c.4-.024.8,0,1.208-.005q0,3.166,0,6.333-.686,0-1.369,0c-.005-1.613,0-3.224,0-4.836a8,8,0,0,1-1.083.7c-.005-.405,0-.81,0-1.215a4.807,4.807,0,0,0,1.25-.973" transform="translate(-46.103 9.662)" fill="#4B5563"/>
  </g>
</svg>
