<svg id="Grupo_1988" data-name="Grupo 1988" xmlns="http://www.w3.org/2000/svg" width="64.947" height="70.802" viewBox="0 0 64.947 70.802">
  <path id="Trazado_11293" data-name="Trazado 11293" d="M19.374,2.7A33.2,33.2,0,0,1,40.927,1.085a33.689,33.689,0,0,1,18.522,12.8,31.87,31.87,0,0,1-3.53,40.154c1.968.052,3.941-.071,5.908.045a1.569,1.569,0,0,1,1.345,1.8c0,4.409.011,8.82-.009,13.227A1.673,1.673,0,0,1,62,70.8H3.993a1.769,1.769,0,0,1-1.179-1.658c-.061-3.95.011-7.9-.027-11.852a9.73,9.73,0,0,1,.128-2.2,1.593,1.593,0,0,1,1.572-1.027c1.517-.054,3.035.007,4.552-.02A32.089,32.089,0,0,1,0,33.765V30.624A31.885,31.885,0,0,1,19.374,2.7m13.871.622c-.016,1.608,0,3.212,0,4.816.51,0,1.022,0,1.532.009-.005-.687-.013-1.376-.024-2.063a5.924,5.924,0,0,0,2.705-.552,1.117,1.117,0,0,0-.092-1.91c-1.3-.532-2.754-.213-4.12-.3m-4.239.586c-.577,1.175-.8,2.5-1.4,3.673l-.148.011c-1.065-.714-2.022-1.577-3.029-2.364-.3.058-.6.121-.892.179.168,1.613.3,3.23.376,4.85.289-.06.581-.118.87-.174-.148-1.067-.329-2.127-.467-3.194,1.118.823,2.186,1.713,3.309,2.528.595-1.266.931-2.631,1.421-3.941.49,1,.946,2.022,1.436,3.024q.781-.241,1.568-.468c-.816-1.382-1.512-2.828-2.219-4.266-.208.033-.618.107-.825.141m10.18,2.1c.5.935,1.543,1.421,2.125,2.309-.817,1.232-2.537.273-2.781-.915-.208.295-.416.591-.628.883,1.118.7,2.494,1.405,3.834.94a1.13,1.13,0,0,0,.526-1.752C41.674,6.742,40.9,6.183,40.29,5.46c.539-1,1.846-.515,2.279.324.2.577.608-.152.892-.231a4.418,4.418,0,0,0-3.228-1.119,1.228,1.228,0,0,0-1.047,1.581M7.1,17.034a27.354,27.354,0,0,0-2.626,20.83A28.361,28.361,0,0,0,14.929,53.032c1.213.915,2.523,1.689,3.763,2.559-4.736.076-9.476,0-14.216.042.033,4.541-.054,9.084.043,13.621q28.518-.024,57.034-.009c.014-4.539-.016-9.084.011-13.623-4.563-.016-9.125.04-13.688-.031a36.648,36.648,0,0,0,7.3-5.6,28.358,28.358,0,0,0,6.753-11.3,27.441,27.441,0,0,0,.127-15.723,28.731,28.731,0,0,0-12.4-16.144A8.411,8.411,0,0,0,46.92,5.485c-1.244,2.327-2.575,4.608-3.845,6.921a21.541,21.541,0,0,1,9.652,9.266,19.955,19.955,0,0,1,1.76,14.066A20.775,20.775,0,0,1,46.7,47.4a22.78,22.78,0,0,1-24.933,1.365,21.085,21.085,0,0,1-9.561-12.051,20.067,20.067,0,0,1,1.657-15.366,21.657,21.657,0,0,1,9.447-8.919c-1.28-2.346-2.479-4.734-3.794-7.057A29.842,29.842,0,0,0,7.1,17.034m21.553-4.011A16.524,16.524,0,0,0,27.629,16.2c-.807,3.425-1.087,7.178.316,10.491.031-3.476,2.38-6.212,3.72-9.248a8.452,8.452,0,0,0,.667-5.159,16.643,16.643,0,0,0-3.682.74m5.076-.819c.163.434.331.864.506,1.295a27.551,27.551,0,0,1,3.644-.1c-1,.808-2.42.535-3.588.917a12.432,12.432,0,0,1-.671,3.548c2.639.083,5.228-.647,7.859-.521a5.562,5.562,0,0,1-2.62.769c-1.691.3-3.405.477-5.074.886-.322.107-.767.107-.91.481-.678,1.165-1.573,2.186-2.2,3.387,4.2-.389,8.393-.845,12.6-1.233l.262.391c-4.6.93-9.232,1.669-13.849,2.5a9.275,9.275,0,0,0-.884,2.883c4.188-.2,8.34-.926,12.514-1.347-.528-.843-1.1-1.653-1.649-2.478,1.723-.637,3.592-.486,5.391-.7A14.949,14.949,0,0,1,44.3,15.78c.342-.089.682-.179,1.025-.269a21.407,21.407,0,0,0-11.6-3.308M22.519,15.941A19.521,19.521,0,0,0,27.551,27.2c-1.855-4.272-1.662-9.113-.673-13.574a22.276,22.276,0,0,0-4.36,2.311m22.625.855a17.5,17.5,0,0,0,1.311,4.152,38.255,38.255,0,0,0,2.4,3.716,21.81,21.81,0,0,0-7.756-.242,15.972,15.972,0,0,0,4.391,3.42c.371.194,1.154.517.736,1.042a45.1,45.1,0,0,0-3.214,5.376,11.908,11.908,0,0,0,5.8-.893,5.54,5.54,0,0,1-.36,1.476,16.019,16.019,0,0,0-1.134,5.534,13.806,13.806,0,0,0,4.528-3.635A16,16,0,0,0,52.848,26.8c-.96.354-2.034.942-2.2,2.063a1.481,1.481,0,0,0,.427,1.671c.253.177-.139.7-.345.47-1.584-.725-1.685-2.989-.834-4.311.53-.971,1.669-1.235,2.613-1.633a19.551,19.551,0,0,0-3.338-5.948A17.554,17.554,0,0,0,45.144,16.8M19.225,19.213c.72-.04,1.438-.127,2.157-.181-.1-.581-.219-1.157-.331-1.734a10.582,10.582,0,0,0-1.827,1.915m-.883,2.139c-.324.087-.8.078-.9.486-.362.723-.653,1.483-.991,2.221,2.223-.024,4.42-.4,6.635-.55-.4-.922-.808-1.843-1.163-2.783-1.19.219-2.387.423-3.581.626m-2.718,5.427c-.127.817-.257,1.637-.369,2.459,3.8-.47,7.6-.966,11.4-1.411A25.453,25.453,0,0,1,24.266,25.4c-2.9.353-5.776.832-8.641,1.378m3.405,4.23a6.158,6.158,0,0,1,2.525.732,6.952,6.952,0,0,1,1.593,1.637,4.362,4.362,0,0,1,6-.736c4.479-.6,8.961-1.183,13.447-1.694a22.94,22.94,0,0,0,1.28-2.221A15.257,15.257,0,0,0,42,27.065c-7.626,1.47-15.319,2.615-22.973,3.944m-3.729.7q.114.678.233,1.353a7.069,7.069,0,0,1,2.454-1.89c-.9.183-1.792.347-2.687.537m14.847,2.2a5.58,5.58,0,0,1,.358,2.168,12.179,12.179,0,0,1,3.221.165c2.718-.342,5.427-.821,8.151-1.143-.1-.174-.212-.349-.315-.519.259-.868.477-1.749.675-2.633-4.053.5-8.078,1.2-12.089,1.962M16.522,36.532a18.5,18.5,0,0,0,4.1,6.011c.411-.765,1.251-1.065,1.852-1.635a5.207,5.207,0,0,0,.288-1.436c.432.362.514.94.745,1.425a5.96,5.96,0,0,0,1.559.486,8.413,8.413,0,0,0,1.814-.821A8.344,8.344,0,0,1,25.6,42.218,5.512,5.512,0,0,0,28,43.69a10.338,10.338,0,0,1-2.23.09c-.3-.575-.582-1.349-1.324-1.441a2.339,2.339,0,0,0-2.44,1.264A18.488,18.488,0,0,0,33.252,47.97c.6.063.9-.577,1.134-1.016a2.806,2.806,0,0,0-.246-2.684c-.691-.946-1.995-.812-3.026-.958a10.97,10.97,0,0,0,1.937-1.128,3.133,3.133,0,0,0,.557-3.022,2.845,2.845,0,0,0-2.971-1.794c-1.118.118-1.872,1.047-2.85,1.492.383-1.051,1.626-1.754,1.414-2.984-.1-2.277-3.237-3.226-4.861-1.843-1.087.886-1.154,2.384-1.5,3.639-.573-.917.132-2.114-.523-3A3.249,3.249,0,0,0,18.869,33c-1.584.15-3.141,1.962-2.347,3.534m18.4.734a6.8,6.8,0,0,1,.892,2.554c2.526.02,5.031-.353,7.545-.544.77-.02,1.646-.436,2.344.054-3.416.87-6.952,1.152-10.371,2.007a11.453,11.453,0,0,1-1.391,1.651A6.528,6.528,0,0,1,36.2,44.706c2.449-.3,4.9-.552,7.349-.848.132.1.4.311.535.414-2.449.613-4.948.986-7.42,1.5q-.081,1.031-.208,2.058A17.792,17.792,0,0,0,49.56,40.424,7.378,7.378,0,0,1,47,41.268c-.778-1.8-.611-3.783-.752-5.686a9.349,9.349,0,0,0-2.892-.056c-2.818.562-5.612,1.239-8.444,1.74" transform="translate(0 0)" fill="#4B5563"/>
  <path id="Trazado_11294" data-name="Trazado 11294" d="M19.237,4.109c-.016-.7-.011-1.4,0-2.094.642.072,1.584.137,1.584,1,.034.868-.958.951-1.584,1.094" transform="translate(15.543 1.629)" fill="#4B5563"/>
  <path id="Trazado_11295" data-name="Trazado 11295" d="M26.146,34.588a1.112,1.112,0,0,0-1.009.651.973.973,0,0,0-.067.425c.033.776.4,1.47,1.177,1.47.606,0,.987-.55.987-1.289a1.115,1.115,0,0,0-1.089-1.257" transform="translate(20.267 27.962)" fill="#4B5563"/>
  <path id="Trazado_11296" data-name="Trazado 11296" d="M7.208,34.874a1.106,1.106,0,0,0-.886,1.089,1,1,0,0,0,1.033,1.02.916.916,0,0,0,1-.908c0-.64-.472-1.022-1.145-1.2" transform="translate(5.111 28.193)" fill="#4B5563"/>
  <path id="Trazado_11297" data-name="Trazado 11297" d="M12.05,33.236c-.628,0-1.054.8-1.043,2.49C11,37.4,11.4,38.195,12.06,38.195s1.022-.83,1.022-2.49c0-1.617-.349-2.469-1.033-2.469" transform="translate(8.898 26.869)" fill="#4B5563"/>
  <path id="Trazado_11298" data-name="Trazado 11298" d="M21.378,33.211c-.582,0-1.009.515-1,1.279a1.039,1.039,0,0,0,1.033,1.166,1.077,1.077,0,0,0,.942-.481.807.807,0,0,0,.089-.427c0-.774-.291-1.537-1.065-1.537" transform="translate(16.476 26.849)" fill="#4B5563"/>
  <path id="Trazado_11299" data-name="Trazado 11299" d="M3.658,41.593H56.014V31.835H3.658Zm5.783-.977c-1.85,0-2.7-1.043-2.7-2.031a1.936,1.936,0,0,1,1.3-1.828v-.034a1.766,1.766,0,0,1-1.054-1.591c0-1.235,1.11-2.054,2.568-2.054,1.705,0,2.412.987,2.412,1.874a1.774,1.774,0,0,1-1.054,1.6v.034a1.93,1.93,0,0,1,1.335,1.817c0,1.324-1.11,2.21-2.8,2.21m8.516,0c-1.884,0-2.714-1.695-2.727-3.758,0-2.109.9-3.781,2.783-3.781,1.951,0,2.714,1.74,2.714,3.736,0,2.255-.908,3.8-2.771,3.8m11.05-.123h-5.17V39.461l.942-.852c1.593-1.425,2.367-2.244,2.389-3.1,0-.593-.358-1.065-1.2-1.065a2.647,2.647,0,0,0-1.559.606l-.483-1.222a4.047,4.047,0,0,1,2.391-.752,2.267,2.267,0,0,1,2.557,2.289c0,1.223-.886,2.2-1.94,3.141l-.675.561v.022h2.749Zm7.416-.921A4.321,4.321,0,0,1,33.64,40.6a6.056,6.056,0,0,1-.772,0V39.259a3.826,3.826,0,0,0,.74,0,2.918,2.918,0,0,0,1.436-.448,2.267,2.267,0,0,0,.92-1.345l-.034-.011a1.923,1.923,0,0,1-1.458.526A2.2,2.2,0,0,1,32.193,35.7a2.652,2.652,0,0,1,2.749-2.626c1.874,0,2.76,1.436,2.76,3.141a4.355,4.355,0,0,1-1.279,3.355m7.158,1.043c-1.94,0-2.893-1.447-2.893-3.186a4.047,4.047,0,0,1,4.105-4.319,5.027,5.027,0,0,1,.684-.011v1.313a4.575,4.575,0,0,0-.662.022,2.333,2.333,0,0,0-2.378,1.751h.034a2.051,2.051,0,0,1,1.548-.584,2.214,2.214,0,0,1,2.255,2.378,2.611,2.611,0,0,1-2.693,2.637m8.324,0c-1.852,0-2.7-1.043-2.7-2.031a1.936,1.936,0,0,1,1.3-1.828v-.034a1.768,1.768,0,0,1-1.056-1.591c0-1.235,1.112-2.054,2.57-2.054,1.705,0,2.412.987,2.412,1.874a1.774,1.774,0,0,1-1.054,1.6v.034a1.93,1.93,0,0,1,1.335,1.817c0,1.324-1.11,2.21-2.8,2.21" transform="translate(2.957 25.736)" fill="#4B5563"/>
  <path id="Trazado_11300" data-name="Trazado 11300" d="M30.9,34.99a1,1,0,0,0,.74-.931.835.835,0,0,0-.886-.9.813.813,0,0,0-.886.841c0,.494.448.808,1.033.987" transform="translate(24.144 26.809)" fill="#4B5563"/>
  <path id="Trazado_11301" data-name="Trazado 11301" d="M7.417,34.99a1,1,0,0,0,.74-.931.835.835,0,0,0-.886-.9A.813.813,0,0,0,6.384,34c0,.494.448.808,1.033.987" transform="translate(5.161 26.809)" fill="#4B5563"/>
  <path id="Trazado_11302" data-name="Trazado 11302" d="M30.689,34.874a1.106,1.106,0,0,0-.886,1.089,1,1,0,0,0,1.033,1.02.916.916,0,0,0,1-.908c0-.64-.472-1.022-1.145-1.2" transform="translate(24.094 28.193)" fill="#4B5563"/>
</svg>
